<?xml version="1.0" encoding="UTF-8"?>
<svg version="1.1" xmlns="http://www.w3.org/2000/svg" width="488" height="511">
<path d="M0 0 C3.08441029 2.67517846 5.95519878 5.54122424 8.831604 8.43719482 C9.68499603 9.28449575 10.53838806 10.13179667 11.41764045 11.00477338 C13.76884692 13.34227176 16.11321888 15.68625222 18.45483065 18.03333855 C20.98795827 20.56914712 23.52968551 23.0963121 26.07025146 25.62466431 C31.03946157 30.5728649 36.00043165 35.529247 40.95825413 40.48885486 C44.98890448 44.52081479 49.02210858 48.55020277 53.05712128 52.57779694 C54.22104211 53.7396185 55.38496211 54.90144091 56.54888129 56.06326413 C57.12825461 56.64159392 57.70762793 57.21992371 58.30455801 57.81577864 C69.25034056 68.74267777 80.18615173 79.67951471 91.11908147 90.61927143 C101.11523118 100.6209984 111.12452472 110.60945351 121.13999775 120.59182724 C131.43288404 130.85096185 141.71643983 141.11936563 151.99015403 151.39770055 C157.75463953 157.16442882 163.52279402 162.92736969 169.30084991 168.68050385 C174.21863399 173.57725606 179.12758752 178.48265542 184.02541664 183.39937016 C186.52296018 185.90605879 189.02430884 188.40860052 191.53675842 190.90035629 C194.2636277 193.60501345 196.97076153 196.32889745 199.67633057 199.05487061 C200.86464395 200.22440722 200.86464395 200.22440722 202.07696366 201.41757083 C207.87050675 207.30511736 212.57590471 213.84507801 212.5625 222.4375 C212.59537109 223.67306641 212.59537109 223.67306641 212.62890625 224.93359375 C210.74330078 234.12738442 205.11382792 240.61364803 198.60749817 247.02742004 C197.76498636 247.8777318 196.92247456 248.72804356 196.05443209 249.60412234 C193.73381523 251.94113367 191.40244847 254.26673405 189.06586349 256.58775985 C186.54069764 259.10155339 184.03003589 261.62976567 181.51742554 264.15609741 C176.60100098 269.09469641 171.67122599 274.01975403 166.73645041 278.94000933 C162.72430614 282.94083851 158.71709696 286.94654945 154.71332359 290.95575523 C154.1423885 291.5274565 153.5714534 292.09915776 152.98321724 292.6881833 C151.82321207 293.84978718 150.6632181 295.01140222 149.50323518 296.17302831 C138.63834476 307.05215927 127.75821229 317.91594259 116.87276366 328.77449801 C107.54310769 338.08181677 98.22663849 347.40216657 88.91967773 356.73217773 C78.09862799 367.58001544 67.26947421 378.41965668 56.42735499 389.24643916 C55.27014464 390.40205685 54.11294468 391.55768496 52.95575523 392.71332359 C52.38646647 393.28184098 51.8171777 393.85035837 51.23063776 394.43610356 C47.22914739 398.43328592 43.23346953 402.43622193 39.24003029 406.4414463 C34.36984557 411.32568785 29.49078366 416.20085114 24.600301 421.06477187 C22.10771372 423.54426381 19.61920712 426.02750184 17.14147377 428.52184486 C14.44820581 431.22881113 11.73994856 433.91985182 9.02742004 436.60749817 C7.86808912 437.78355951 7.86808912 437.78355951 6.68533736 438.98337966 C0.37026483 445.18686296 -6.40479922 450.14493033 -15.5 450.625 C-25.88008775 450.07701285 -33.04361427 443.6915224 -40.02742004 436.60076904 C-40.8777318 435.75755167 -41.72804356 434.9143343 -42.60412234 434.04556489 C-44.94114032 431.72301652 -47.26673512 429.3897154 -49.58775985 427.05120444 C-52.10152826 424.52399466 -54.62974455 422.01130695 -57.15609741 419.49668884 C-62.0946154 414.57650109 -67.01965139 409.6430302 -71.94000933 404.7046887 C-75.94066447 400.68997977 -79.94639008 396.68039512 -83.95575523 392.67438507 C-84.81330713 391.81754934 -84.81330713 391.81754934 -85.6881833 390.9434038 C-86.84978388 389.7828296 -88.01139893 388.62226991 -89.17302831 387.46172455 C-99.43251494 377.21079555 -109.67935712 366.94731782 -119.91967773 356.67724609 C-129.84619672 346.72188826 -139.78352668 336.77747924 -149.73217773 326.84423828 C-160.57811575 316.01507734 -171.41763464 305.17956265 -182.24643916 294.3332665 C-183.4020625 293.17579886 -184.55769062 292.01833601 -185.71332359 290.86087799 C-186.28184098 290.29144851 -186.85035837 289.72201904 -187.43610356 289.13533412 C-191.43437409 285.13146786 -195.43707072 281.13205971 -199.4414463 277.13430023 C-204.32381801 272.25967565 -209.19884026 267.37783709 -214.06477187 262.48679963 C-216.54550844 259.99360051 -219.02926178 257.50362873 -221.52184486 255.0222683 C-224.22643306 252.32638392 -226.91837173 249.61846069 -229.60749817 246.90716553 C-230.39153906 246.1313654 -231.17557995 245.35556528 -231.98337966 244.55625606 C-237.40611689 239.05086915 -242.20888708 233.3290092 -243.62890625 225.55859375 C-243.60699219 224.52863281 -243.58507812 223.49867188 -243.5625 222.4375 C-243.56378906 221.40496094 -243.56507813 220.37242187 -243.56640625 219.30859375 C-242.06125532 210.51643624 -236.70060499 205.12612148 -230.58694458 199.08573914 C-229.73021428 198.22347444 -228.87348398 197.36120974 -227.99079216 196.47281581 C-225.62419884 194.09500425 -223.24901515 191.72642819 -220.86966395 189.36142433 C-218.30068612 186.80358743 -215.74329356 184.23421091 -213.18438721 181.66630554 C-208.17540592 176.64341192 -203.15577112 171.63129794 -198.13230313 166.62289705 C-192.28088339 160.78835917 -186.43953754 154.94377862 -180.59842514 149.09892497 C-170.1760834 138.67070853 -159.7437578 128.25253641 -149.30615234 117.83959961 C-139.18040686 107.73778299 -129.06313053 97.62757795 -118.95458984 87.50854492 C-107.94186522 76.48440991 -96.9244181 65.4650347 -85.89877021 54.45382339 C-84.72308767 53.27966666 -83.54740786 52.10550721 -82.3717308 50.93134499 C-81.79329187 50.35366387 -81.21485294 49.77598275 -80.61888555 49.18079614 C-76.54441103 45.11106278 -72.47323968 41.03804291 -68.40326309 36.96381187 C-63.44387235 31.99949361 -58.47906128 27.04067198 -53.50729932 22.0887424 C-50.9711772 19.56248838 -48.43749017 17.03391544 -45.91023636 14.49878693 C-43.17060392 11.75079293 -40.41944688 9.01452744 -37.66702271 6.27934265 C-36.87012909 5.47643899 -36.07323548 4.67353533 -35.25219357 3.84630126 C-24.33947962 -6.94211636 -12.68840646 -9.14339663 0 0 Z M30 122 C30 140.15 30 158.3 30 177 C21.52570313 177.01417969 13.05140625 177.02835938 4.3203125 177.04296875 C-1.74159677 177.06558525 -7.80342986 177.09132669 -13.86529922 177.12156963 C-21.71133746 177.16029893 -29.55717906 177.19173545 -37.40332031 177.19555664 C-43.61710296 177.19860651 -49.83054296 177.21923321 -56.04419339 177.26052457 C-59.33109418 177.2817648 -62.6174045 177.29187964 -65.90438461 177.28615379 C-69.5837551 177.28123846 -73.26172047 177.30738587 -76.94091797 177.34057617 C-78.01770309 177.33195053 -79.09448822 177.32332489 -80.2039032 177.31443787 C-87.92667837 177.4307513 -95.13100004 179.03028948 -100.71070671 184.75523663 C-105.83070204 191.18758292 -106.29435235 198.4279526 -106.22705078 206.33178711 C-106.22734283 207.23989136 -106.22763489 208.14799561 -106.22793579 209.08361816 C-106.22654999 212.06495952 -106.2110242 215.04604641 -106.1953125 218.02734375 C-106.1915797 220.10242069 -106.18873399 222.1774994 -106.18673706 224.25257874 C-106.17912161 229.69907547 -106.15949107 235.14546457 -106.1373291 240.59191895 C-106.11321713 247.13485744 -106.10407975 253.67783204 -106.09242249 260.22080231 C-106.07306548 270.14727626 -106.03472823 280.07351432 -106 290 C-91.48 290 -76.96 290 -62 290 C-62 267.56 -62 245.12 -62 222 C-31.31 222 -0.62 222 31 222 C31 239.82 31 257.64 31 276 C36.39590611 271.42744643 36.39590611 271.42744643 41.49925232 266.6210022 C42.09786575 266.02376343 42.69647919 265.42652466 43.31323242 264.81118774 C43.94261719 264.1782077 44.57200195 263.54522766 45.22045898 262.89306641 C46.24611717 261.86762726 46.24611717 261.86762726 47.29249573 260.82147217 C49.52940983 258.583867 51.76277089 256.34275155 53.99609375 254.1015625 C55.55528737 252.54050184 57.11470339 250.97966327 58.67433167 249.41903687 C62.7617722 245.32779371 66.8461996 241.23355542 70.92999268 237.13867188 C75.1044967 232.9539051 79.28186292 228.77199759 83.45898438 224.58984375 C91.64211611 216.39601449 99.82206539 208.19901608 108 200 C103.80691052 194.99837386 99.4380859 190.29409329 94.81713867 185.68774414 C94.1253653 184.99421844 93.43359192 184.30069275 92.72085571 183.58615112 C90.45571924 181.31664723 88.18698544 179.05078026 85.91796875 176.78515625 C84.33695604 175.2034695 82.75609177 173.62163436 81.17536926 172.03965759 C77.87447599 168.73729468 74.57179201 165.43673604 71.26782227 162.13745117 C67.02275477 157.89810865 62.78222985 153.654255 58.54300976 149.4090662 C55.28588355 146.14833846 52.02639428 142.88998132 48.76616859 139.63235283 C47.20044765 138.06730083 45.63547434 136.50150052 44.07124901 134.93495369 C41.89519776 132.7563796 39.715996 130.58100824 37.53588867 128.40649414 C36.88500778 127.75358902 36.23412689 127.1006839 35.56352234 126.42799377 C33.15729942 123.42997591 33.15729942 123.42997591 30 122 Z " fill="#1FA5DC" transform="translate(260,28)"/>
<path d="M0 0 C1.65 0.33 3.3 0.66 5 1 C4.67 2.32 4.34 3.64 4 5 C3.67 5 3.34 5 3 5 C3.00222061 5.66176743 3.00444122 6.32353485 3.00672913 7.00535583 C3.02877965 13.8666022 3.04390562 20.72783857 3.05493164 27.58911133 C3.0599737 30.15291757 3.06680714 32.71672091 3.07543945 35.28051758 C3.08751064 38.95655021 3.09322942 42.63254498 3.09765625 46.30859375 C3.10281754 47.46274277 3.10797882 48.61689178 3.11329651 49.80601501 C3.11337204 50.86703934 3.11344757 51.92806366 3.11352539 53.02124023 C3.115746 53.96055893 3.11796661 54.89987762 3.12025452 55.86766052 C3 58 3 58 2 59 C0.41886387 59.10809116 -1.16706062 59.14684044 -2.75184631 59.15821838 C-3.77974777 59.1680072 -4.80764923 59.17779602 -5.86669922 59.18788147 C-7.00389404 59.19363693 -8.14108887 59.1993924 -9.31274414 59.20532227 C-10.50282578 59.21522186 -11.69290741 59.22512146 -12.91905212 59.23532104 C-16.19160309 59.26157103 -19.46414865 59.28340731 -22.73674321 59.30332303 C-26.15341561 59.32514533 -29.57004297 59.35255233 -32.98667908 59.37937927 C-39.46065999 59.42935712 -45.93466584 59.47427698 -52.40869564 59.51740164 C-59.77741119 59.56673059 -67.14608157 59.62166477 -74.51475346 59.67708123 C-89.67646023 59.79097941 -104.83820952 59.89780129 -120 60 C-115.78612088 56.53859929 -112.63497389 55.87372761 -107.26702881 55.87974548 C-106.3191449 55.87837082 -105.37126099 55.87699615 -104.39465332 55.87557983 C-102.8453009 55.88097275 -102.8453009 55.88097275 -101.26464844 55.88647461 C-100.17166443 55.88632858 -99.07868042 55.88618256 -97.95257568 55.8860321 C-94.3381553 55.88672904 -90.72378639 55.89451124 -87.109375 55.90234375 C-84.60402454 55.90420871 -82.09867371 55.90563224 -79.59332275 55.90663147 C-73.67189789 55.91006013 -67.75048956 55.91794249 -61.82907319 55.92798096 C-53.2420007 55.94222211 -44.65492191 55.94745763 -36.06784058 55.95378876 C-24.04521175 55.96348766 -12.0226312 55.98264854 0 56 C0 37.52 0 19.04 0 0 Z " fill="#71C2DF" transform="translate(288,147)"/>
<path d="M0 0 C30.69 0 61.38 0 93 0 C93.33 17.49 93.66 34.98 94 53 C96.31 51.02 98.62 49.04 101 47 C99.38207319 50.23585361 98.44195891 51.83246068 96 54.25 C95.2265625 55.03117187 95.2265625 55.03117187 94.4375 55.828125 C93 57 93 57 91 57 C91 38.52 91 20.04 91 1 C61.3 1 31.6 1 1 1 C1 23.44 1 45.88 1 69 C-13.85 69 -28.7 69 -44 69 C-44 68.67 -44 68.34 -44 68 C-29.48 68 -14.96 68 0 68 C0 45.56 0 23.12 0 0 Z " fill="#8ED3ED" transform="translate(198,250)"/>
<path d="M0 0 C0.33 0.99 0.66 1.98 1 3 C0.360625 3.5775 -0.27875 4.155 -0.9375 4.75 C-2.98223868 6.98062401 -3.58205199 8.07436391 -4 11 C-4.66 11 -5.32 11 -6 11 C-6.12375 11.61875 -6.2475 12.2375 -6.375 12.875 C-7 15 -7 15 -9 17 C-9.99 17 -10.98 17 -12 17 C-12 17.66 -12 18.32 -12 19 C-12.66 19 -13.32 19 -14 19 C-14.33 19.99 -14.66 20.98 -15 22 C-15.66 21.67 -16.32 21.34 -17 21 C-21.98643115 27.21523025 -22.64897681 32.15459142 -22 40 C-21.34 40 -20.68 40 -20 40 C-19.01 43.63 -18.02 47.26 -17 51 C-23.42574424 44.57425576 -24.33454602 40.26687835 -24.49609375 31.4140625 C-23.0853756 21.70565569 -16.56962332 16.0712897 -9.75 9.5 C-8.81414063 8.5821875 -7.87828125 7.664375 -6.9140625 6.71875 C-4.61822861 4.46976986 -2.31356568 2.23071071 0 0 Z " fill="#24A1D8" transform="translate(41,216)"/>
<path d="M0 0 C0.495 1.485 0.495 1.485 1 3 C0.67 3.66 0.34 4.32 0 5 C-0.66 5 -1.32 5 -2 5 C-2 5.66 -2 6.32 -2 7 C-2.66 7 -3.32 7 -4 7 C-4.28875 7.763125 -4.5775 8.52625 -4.875 9.3125 C-6.48189131 13.1511848 -7.91431286 15.1812845 -11.5625 17.0625 C-15.03054748 18.59476621 -15.03054748 18.59476621 -16 21 C-16.66 21 -17.32 21 -18 21 C-18 21.66 -18 22.32 -18 23 C-19.90740315 25.17988932 -21.4910557 26.7604968 -24.125 28 C-26.18661701 28.85527039 -26.18661701 28.85527039 -26.9375 31.0625 C-27.288125 31.701875 -27.63875 32.34125 -28 33 C-30.625 33.75 -30.625 33.75 -33 34 C-29.03627475 29.24914133 -24.90205218 24.76386888 -20.5078125 20.41015625 C-19.91700897 19.82076767 -19.32620544 19.23137909 -18.71749878 18.62413025 C-16.85569596 16.76786273 -14.99042255 14.91512915 -13.125 13.0625 C-11.85132989 11.79385328 -10.57789029 10.5249751 -9.3046875 9.25585938 C-6.20577957 6.16789446 -3.10375699 3.08309071 0 0 Z " fill="#57B4DC" transform="translate(75,182)"/>
<path d="M0 0 C0.99 0.33 1.98 0.66 3 1 C2.85932413 1.53879004 2.71864826 2.07758009 2.57370949 2.63269711 C1.17902533 8.34931889 0.69629887 13.68823411 0.68115234 19.55883789 C0.67110672 20.46723419 0.6610611 21.37563049 0.65071106 22.31155396 C0.62008619 25.28191558 0.60290195 28.25218795 0.5859375 31.22265625 C0.56720917 33.2948838 0.54763454 35.36710386 0.5272522 37.4393158 C0.47610086 42.86924811 0.43638447 48.29920511 0.39910889 53.72924805 C0.35896228 59.27984639 0.30791872 64.83034358 0.2578125 70.38085938 C0.16125464 81.25383502 0.07678583 92.126868 0 103 C-0.33 103 -0.66 103 -1 103 C-1.33 70 -1.66 37 -2 3 C-1.34 3 -0.68 3 0 3 C0 2.01 0 1.02 0 0 Z " fill="#7BCAEA" transform="translate(154,215)"/>
<path d="M0 0 C2.3125 -0.3125 2.3125 -0.3125 5 0 C6.5625 2.3125 6.5625 2.3125 8 5 C9.32392972 6.01241685 10.65599167 7.01439389 12 8 C12.33 8.99 12.66 9.98 13 11 C16.21284338 12.88579937 18.24633583 14 22 14 C22 14.99 22 15.98 22 17 C22.99 17.33 23.98 17.66 25 18 C25.33 20.64 25.66 23.28 26 26 C20.02265091 21.04455862 14.53812065 15.68810448 9.0625 10.1875 C8.18787109 9.31673828 7.31324219 8.44597656 6.41210938 7.54882812 C5.58646484 6.72189453 4.76082031 5.89496094 3.91015625 5.04296875 C3.15871338 4.29039795 2.40727051 3.53782715 1.63305664 2.76245117 C0 1 0 1 0 0 Z " fill="#62B9DC" transform="translate(194,437)"/>
<path d="M0 0 C2.59030651 0.44405255 4.82869998 0.92082266 7.22265625 2.02734375 C10.68327819 3.23929152 13.5910747 3.2296006 17.25 3.1875 C18.49265625 3.18105469 19.7353125 3.17460937 21.015625 3.16796875 C23.88306123 3.33902359 23.88306123 3.33902359 25 2 C26.66617115 1.95936168 28.33388095 1.957279 30 2 C27.06570626 5.39760328 23.87591614 6.7262488 19.45703125 7.37109375 C12.30128164 7.55078022 6.96096132 6.04756633 1 2 C0.67 1.34 0.34 0.68 0 0 Z " fill="#4EABD5" transform="translate(228,471)"/>
<path d="M0 0 C0.33 1.32 0.66 2.64 1 4 C-1.3125 6.75 -1.3125 6.75 -4 9 C-4.66 9 -5.32 9 -6 9 C-6.33 9.99 -6.66 10.98 -7 12 C-8.62102968 13.71108689 -10.29503463 15.37253306 -12 17 C-12.845625 17.94875 -13.69125 18.8975 -14.5625 19.875 C-15.366875 20.57625 -16.17125 21.2775 -17 22 C-18.32 21.67 -19.64 21.34 -21 21 C-14.07 14.07 -7.14 7.14 0 0 Z " fill="#4BAEDA" transform="translate(111,146)"/>
<path d="M0 0 C0.33 0.66 0.66 1.32 1 2 C1.66 2.33 2.32 2.66 3 3 C2.360625 3.28875 1.72125 3.5775 1.0625 3.875 C-1.15206079 4.82823451 -1.15206079 4.82823451 -2 7 C-2.7425 7.37125 -3.485 7.7425 -4.25 8.125 C-7.02064343 10.01407506 -7.8517833 11.12614303 -9.5 13.9375 C-11.55525291 17.42949711 -13.43343304 19.89664 -17 22 C-18.32 21.67 -19.64 21.34 -21 21 C-14.07 14.07 -7.14 7.14 0 0 Z " fill="#4DAEDA" transform="translate(143,114)"/>
<path d="M0 0 C0.84498047 0.71542969 0.84498047 0.71542969 1.70703125 1.4453125 C0.74023438 1.41050781 -0.2265625 1.37570313 -1.22265625 1.33984375 C-8.32199906 1.19223365 -14.58577943 1.30797765 -21.33984375 3.7890625 C-23.29296875 4.4453125 -23.29296875 4.4453125 -26.29296875 4.4453125 C-19.51519839 -1.89518235 -8.34456865 -5.65781656 0 0 Z " fill="#6BBEDD" transform="translate(254.29296875,24.5546875)"/>
<path d="M0 0 C1.65 0 3.3 0 5 0 C5.33 0.99 5.66 1.98 6 3 C6.825 3.45375 7.65 3.9075 8.5 4.375 C11 6 11 6 11.8125 8.6875 C11.874375 9.450625 11.93625 10.21375 12 11 C13.32 11.33 14.64 11.66 16 12 C15.67 13.32 15.34 14.64 15 16 C12.49599357 13.5248518 9.99748094 11.04423106 7.5 8.5625 C6.78457031 7.85544922 6.06914062 7.14839844 5.33203125 6.41992188 C4.65527344 5.74638672 3.97851562 5.07285156 3.28125 4.37890625 C2.65283203 3.7557251 2.02441406 3.13254395 1.37695312 2.49047852 C0 1 0 1 0 0 Z " fill="#5AB5DE" transform="translate(319,178)"/>
<path d="M0 0 C0.33 1.32 0.66 2.64 1 4 C0.34 4 -0.32 4 -1 4 C-1 4.66 -1 5.32 -1 6 C-2.90740315 8.17988932 -4.4910557 9.7604968 -7.125 11 C-9.18661701 11.85527039 -9.18661701 11.85527039 -9.9375 14.0625 C-10.288125 14.701875 -10.63875 15.34125 -11 16 C-13.625 16.75 -13.625 16.75 -16 17 C-11.01595832 10.96668638 -5.58084697 5.4815829 0 0 Z " fill="#5AB5DD" transform="translate(58,199)"/>
<path d="M0 0 C0 3.59857954 -0.95830515 5.09451118 -3 8 C-3.66 8 -4.32 8 -5 8 C-5.2475 8.5775 -5.495 9.155 -5.75 9.75 C-7.2127149 12.38288682 -8.63826769 14.12450669 -11 16 C-12.32 15.67 -13.64 15.34 -15 15 C-10.05 10.05 -5.1 5.1 0 0 Z " fill="#4FAEDA" transform="translate(218,39)"/>
<path d="M0 0 C5.04565288 1.26141322 6.96354501 2.85017818 10 7 C10.7425 7.556875 11.485 8.11375 12.25 8.6875 C12.8275 9.120625 13.405 9.55375 14 10 C14 10.66 14 11.32 14 12 C14.66 12 15.32 12 16 12 C15.67 13.32 15.34 14.64 15 16 C12.49599357 13.5248518 9.99748094 11.04423106 7.5 8.5625 C6.78457031 7.85544922 6.06914062 7.14839844 5.33203125 6.41992188 C4.65527344 5.74638672 3.97851562 5.07285156 3.28125 4.37890625 C2.65283203 3.7557251 2.02441406 3.13254395 1.37695312 2.49047852 C0 1 0 1 0 0 Z " fill="#74C5E3" transform="translate(176,419)"/>
<path d="M0 0 C0.33 0.99 0.66 1.98 1 3 C0.01 3.33 -0.98 3.66 -2 4 C-2 4.99 -2 5.98 -2 7 C-2.66 7 -3.32 7 -4 7 C-4.144375 7.61875 -4.28875 8.2375 -4.4375 8.875 C-5 11 -5 11 -6 13 C-8.32156597 13.40729228 -10.6568787 13.74438677 -13 14 C-8.88380164 9.08064098 -4.59589638 4.47352044 0 0 Z " fill="#53B2DB" transform="translate(89,168)"/>
<path d="M0 0 C1.485 0.99 1.485 0.99 3 2 C3.66 1.67 4.32 1.34 5 1 C5 1.99 5 2.98 5 4 C5.99 4.33 6.98 4.66 8 5 C8.33 7.64 8.66 10.28 9 13 C3.73732098 9.15852574 1.16792542 6.48847457 0 0 Z " fill="#27A2DB" transform="translate(211,450)"/>
<path d="M0 0 C1.125 3.75 1.125 3.75 0 6 C-0.07033769 7.87379605 -0.0843022 9.75001102 -0.0625 11.625 C-0.05347656 12.62789062 -0.04445313 13.63078125 -0.03515625 14.6640625 C-0.02355469 15.43492187 -0.01195313 16.20578125 0 17 C0.66 17 1.32 17 2 17 C2.99 20.63 3.98 24.26 5 28 C-0.51767691 22.48232309 -2.18120309 19.19277092 -2.3125 11.4375 C-2.2972148 7.1117883 -1.83663464 3.9293737 0 0 Z " fill="#83C6E4" transform="translate(19,239)"/>
<path d="M0 0 C3.59905908 0.55550695 4.99909799 1.74887248 7.25 4.5625 C7.77078125 5.20316406 8.2915625 5.84382812 8.828125 6.50390625 C9.21484375 6.99761719 9.6015625 7.49132812 10 8 C6.0507432 7.44894091 2.65079826 6.61064629 -1 5 C-0.67 3.35 -0.34 1.7 0 0 Z " fill="#41B0DA" transform="translate(437,208)"/>
<path d="M0 0 C2.86724686 0.57344937 3.8614515 0.8614515 6 3 C5 6 5 6 2.625 7.25 C0 8 0 8 -3 7 C-2.67 5.35 -2.34 3.7 -2 2 C-1.34 2 -0.68 2 0 2 C0 1.34 0 0.68 0 0 Z " fill="#2FA9D9" transform="translate(341,112)"/>
<path d="M0 0 C3.59905908 0.55550695 4.99909799 1.74887248 7.25 4.5625 C7.77078125 5.20316406 8.2915625 5.84382812 8.828125 6.50390625 C9.21484375 6.99761719 9.6015625 7.49132812 10 8 C8.68 8 7.36 8 6 8 C5.67 7.34 5.34 6.68 5 6 C3.35 6 1.7 6 0 6 C-1.125 2.25 -1.125 2.25 0 0 Z " fill="#49B1DA" transform="translate(395,166)"/>
<path d="M0 0 C4.59913007 0.7884223 8.63430605 1.63430605 12 5 C14.43252661 5.46162427 14.43252661 5.46162427 17.125 5.625 C18.49011719 5.73714844 18.49011719 5.73714844 19.8828125 5.8515625 C20.93082031 5.92503906 20.93082031 5.92503906 22 6 C22 6.33 22 6.66 22 7 C13.85686648 7.69665591 7.84685316 6.64909782 1 2 C0.67 1.34 0.34 0.68 0 0 Z " fill="#8ED3EA" transform="translate(228,471)"/>
<path d="M0 0 C0 0.66 0 1.32 0 2 C-0.66 2 -1.32 2 -2 2 C-2.2475 2.5775 -2.495 3.155 -2.75 3.75 C-4.2127149 6.38288682 -5.63826769 8.12450669 -8 10 C-10.1328125 9.60546875 -10.1328125 9.60546875 -12 9 C-10.57189185 7.49105554 -9.13218981 5.99307655 -7.6875 4.5 C-6.88699219 3.6646875 -6.08648437 2.829375 -5.26171875 1.96875 C-3 0 -3 0 0 0 Z " fill="#4FAEDA" transform="translate(199,61)"/>
<path d="M0 0 C1.32 0 2.64 0 4 0 C4 0.66 4 1.32 4 2 C4.598125 2.226875 5.19625 2.45375 5.8125 2.6875 C8.60188284 4.3611297 9.6168842 6.08817726 11 9 C10.67 9.66 10.34 10.32 10 11 C8.33035479 9.35718838 6.6643536 7.71067239 5 6.0625 C4.071875 5.14597656 3.14375 4.22945313 2.1875 3.28515625 C0 1 0 1 0 0 Z " fill="#71BFE0" transform="translate(165,408)"/>
<path d="M0 0 C0.33 0.99 0.66 1.98 1 3 C0.360625 3.5775 -0.27875 4.155 -0.9375 4.75 C-2.98223868 6.98062401 -3.58205199 8.07436391 -4 11 C-5.65 10.67 -7.3 10.34 -9 10 C-8.06409496 8.8944811 -7.12620142 7.79064547 -6.1875 6.6875 C-5.66542969 6.07261719 -5.14335938 5.45773438 -4.60546875 4.82421875 C-3.12827531 3.14575321 -1.59960869 1.56117966 0 0 Z " fill="#56B3DD" transform="translate(41,216)"/>
<path d="M0 0 C1.65 0 3.3 0 5 0 C5.33 0.99 5.66 1.98 6 3 C6.99 3.33 7.98 3.66 9 4 C9.33 5.98 9.66 7.96 10 10 C2.51708428 3.84965831 2.51708428 3.84965831 0 0 Z " fill="#5AB4DF" transform="translate(351,210)"/>
<path d="M0 0 C-2.06185207 3.0927781 -2.90369802 3.68076198 -6.125 5.1875 C-7.21167969 5.70376953 -7.21167969 5.70376953 -8.3203125 6.23046875 C-8.87460937 6.48441406 -9.42890625 6.73835937 -10 7 C-9.28864254 3.74520406 -8.63727752 2.13010877 -6 0 C-3 -1 -3 -1 0 0 Z " fill="#41AAD8" transform="translate(69,194)"/>
<path d="M0 0 C1.65 0 3.3 0 5 0 C5.33 0.99 5.66 1.98 6 3 C7.29355827 4.37195574 8.62298702 5.71182656 10 7 C9.67 7.99 9.34 8.98 9 10 C7.49702124 8.52386015 5.99768715 7.04400843 4.5 5.5625 C3.6646875 4.73878906 2.829375 3.91507813 1.96875 3.06640625 C0 1 0 1 0 0 Z " fill="#5DB6E0" transform="translate(303,162)"/>
<path d="M0 0 C0.33 0.66 0.66 1.32 1 2 C-0.47169811 5.73584906 -0.47169811 5.73584906 -3 7 C-3.72159424 8.64363134 -4.39351421 10.31050386 -5 12 C-6.32 11.01 -7.64 10.02 -9 9 C-6.03 6.03 -3.06 3.06 0 0 Z " fill="#54B3DD" transform="translate(121,136)"/>
<path d="M0 0 C0.8125 1.6875 0.8125 1.6875 1 4 C-2.17423736 8.03993846 -5.05770013 9.73569073 -10 11 C-6.79239749 7.19364503 -3.59253891 3.45436433 0 0 Z " fill="#5BB6DF" transform="translate(111,146)"/>
<path d="M0 0 C0.33 0.66 0.66 1.32 1 2 C1.66 2.33 2.32 2.66 3 3 C2.360625 3.28875 1.72125 3.5775 1.0625 3.875 C-1.15206079 4.82823451 -1.15206079 4.82823451 -2 7 C-4.93704456 9.0095568 -6.39222485 10 -10 10 C-6.7 6.7 -3.4 3.4 0 0 Z " fill="#5EB7DE" transform="translate(143,114)"/>
<path d="M0 0 C2.31 0.33 4.62 0.66 7 1 C7.33 3.31 7.66 5.62 8 8 C6.85073734 7.04578192 5.70569459 6.08647955 4.5625 5.125 C3.92441406 4.59132813 3.28632812 4.05765625 2.62890625 3.5078125 C1 2 1 2 0 0 Z " fill="#66BDE1" transform="translate(100,343)"/>
<path d="M0 0 C0.66 0 1.32 0 2 0 C2 0.66 2 1.32 2 2 C2.598125 2.226875 3.19625 2.45375 3.8125 2.6875 C6.60188284 4.3611297 7.6168842 6.08817726 9 9 C8.67 9.66 8.34 10.32 8 11 C6.84501103 9.92643323 5.70132133 8.84070212 4.5625 7.75 C3.92441406 7.14671875 3.28632812 6.5434375 2.62890625 5.921875 C0.91483694 3.89951984 0.40641122 2.58729395 0 0 Z " fill="#6CBEDE" transform="translate(47,288)"/>
<path d="M0 0 C1.14926266 0.95421808 2.29430541 1.91352045 3.4375 2.875 C4.07558594 3.40867188 4.71367187 3.94234375 5.37109375 4.4921875 C7 6 7 6 8 8 C6.68 8 5.36 8 4 8 C4 7.34 4 6.68 4 6 C3.34 6 2.68 6 2 6 C2 5.34 2 4.68 2 4 C0.68 3.67 -0.64 3.34 -2 3 C-1.34 2.01 -0.68 1.02 0 0 Z " fill="#57B6DE" transform="translate(451,220)"/>
<path d="M0 0 C0.66 0 1.32 0 2 0 C2.33 1.32 2.66 2.64 3 4 C3.99 4 4.98 4 6 4 C6.33 5.98 6.66 7.96 7 10 C5.82460004 9.07347299 4.65989423 8.13336613 3.5 7.1875 C2.52546875 6.40439453 2.52546875 6.40439453 1.53125 5.60546875 C-0.38667197 3.59458628 0 2.71630148 0 0 Z " fill="#57B4DE" transform="translate(344,200)"/>
<path d="M0 0 C0.99 0.33 1.98 0.66 3 1 C2.71872579 2.48117801 2.42466268 3.95993249 2.125 5.4375 C1.96257812 6.26121094 1.80015625 7.08492187 1.6328125 7.93359375 C1.42398438 8.61550781 1.21515625 9.29742187 1 10 C0.01 10.495 0.01 10.495 -1 11 C-1.33 8.36 -1.66 5.72 -2 3 C-1.34 3 -0.68 3 0 3 C0 2.01 0 1.02 0 0 Z " fill="#64BCE2" transform="translate(154,215)"/>
<path d="M0 0 C0.33 1.32 0.66 2.64 1 4 C0.34 4 -0.32 4 -1 4 C-1.33 5.65 -1.66 7.3 -2 9 C-2.99 9.33 -3.98 9.66 -5 10 C-5 9.34 -5 8.68 -5 8 C-5.33 7.67 -5.66 7.34 -6 7 C-4.02 4.69 -2.04 2.38 0 0 Z " fill="#4DB0DD" transform="translate(166,91)"/>
<path d="M0 0 C1.32 0 2.64 0 4 0 C4 0.66 4 1.32 4 2 C5.32 2.66 6.64 3.32 8 4 C7.67 5.32 7.34 6.64 7 8 C5.83035398 6.8572081 4.66435444 5.71068285 3.5 4.5625 C2.8503125 3.92441406 2.200625 3.28632813 1.53125 2.62890625 C0 1 0 1 0 0 Z " fill="#6ABEDE" transform="translate(220,463)"/>
<path d="M0 0 C1.32 0.33 2.64 0.66 4 1 C1.69 3.31 -0.62 5.62 -3 8 C-3.66 6.68 -4.32 5.36 -5 4 C-3.68 4 -2.36 4 -1 4 C-0.67 2.68 -0.34 1.36 0 0 Z " fill="#75C4E1" transform="translate(332,396)"/>
<path d="M0 0 C3.875 1.75 3.875 1.75 5 4 C1.67465243 5.10844919 -0.62182575 4.84454356 -4 4 C-2.68 2.68 -1.36 1.36 0 0 Z " fill="#3CAFDA" transform="translate(360,130)"/>
<path d="M0 0 C0.33 1.32 0.66 2.64 1 4 C0.34 4 -0.32 4 -1 4 C-1.33 5.32 -1.66 6.64 -2 8 C-3.32 7.34 -4.64 6.68 -6 6 C-4.02 4.02 -2.04 2.04 0 0 Z M-5 8 C-3 9 -3 9 -3 9 Z " fill="#50B0DD" transform="translate(182,75)"/>
<path d="M0 0 C-1.64169528 2.02054804 -3.30911778 4.02043058 -5 6 C-5.33 6 -5.66 6 -6 6 C-6 4.02 -6 2.04 -6 0 C-3 -1 -3 -1 0 0 Z " fill="#62BBDB" transform="translate(304,428)"/>
<path d="M0 0 C-1.64169528 2.02054804 -3.30911778 4.02043058 -5 6 C-5.33 6 -5.66 6 -6 6 C-6 4.02 -6 2.04 -6 0 C-3 -1 -3 -1 0 0 Z " fill="#63BCDC" transform="translate(320,412)"/>
<path d="M0 0 C-1.64169528 2.02054804 -3.30911778 4.02043058 -5 6 C-5.33 6 -5.66 6 -6 6 C-6 4.02 -6 2.04 -6 0 C-3 -1 -3 -1 0 0 Z " fill="#63BBDC" transform="translate(368,364)"/>
<path d="M0 0 C1.98 0.99 1.98 0.99 4 2 C4 2.66 4 3.32 4 4 C4.66 4 5.32 4 6 4 C5.67 5.32 5.34 6.64 5 8 C2.5 5.6875 2.5 5.6875 0 3 C0 2.01 0 1.02 0 0 Z " fill="#67B9DA" transform="translate(186,427)"/>
<path d="M0 0 C0 3.57575896 -1.08840607 5.05295935 -3 8 C-4.32 7.67 -5.64 7.34 -7 7 C-4.69 4.69 -2.38 2.38 0 0 Z " fill="#58B4DD" transform="translate(218,39)"/>
<path d="M0 0 C5.75 1.625 5.75 1.625 8 5 C7.67 5.99 7.34 6.98 7 8 C5.83035398 6.8572081 4.66435444 5.71068285 3.5 4.5625 C2.8503125 3.92441406 2.200625 3.28632813 1.53125 2.62890625 C0 1 0 1 0 0 Z " fill="#76C4E1" transform="translate(212,455)"/>
<path d="M0 0 C5.75 1.625 5.75 1.625 8 5 C7.67 5.99 7.34 6.98 7 8 C5.83035398 6.8572081 4.66435444 5.71068285 3.5 4.5625 C2.8503125 3.92441406 2.200625 3.28632813 1.53125 2.62890625 C0 1 0 1 0 0 Z " fill="#79C3E2" transform="translate(204,447)"/>
<path d="M0 0 C0.99 0.33 1.98 0.66 3 1 C1.35830472 3.02054804 -0.30911778 5.02043058 -2 7 C-2.33 7 -2.66 7 -3 7 C-3.1875 4.625 -3.1875 4.625 -3 2 C-2.01 1.34 -1.02 0.68 0 0 Z " fill="#6DC0DC" transform="translate(461,267)"/>
<path d="M0 0 C0.33 0.99 0.66 1.98 1 3 C-0.40445835 5.2636564 -2.1967913 7.0208685 -4 9 C-4.8125 7.3125 -4.8125 7.3125 -5 5 C-2.5625 2.25 -2.5625 2.25 0 0 Z " fill="#64BBD7" transform="translate(25,232)"/>
<path d="M0 0 C2.66666667 1.33333333 5.33333333 2.66666667 8 4 C7.67 5.32 7.34 6.64 7 8 C5.83035398 6.8572081 4.66435444 5.71068285 3.5 4.5625 C2.8503125 3.92441406 2.200625 3.28632813 1.53125 2.62890625 C0 1 0 1 0 0 Z " fill="#80C8E4" transform="translate(108,351)"/>
<path d="M0 0 C2.66666667 1.33333333 5.33333333 2.66666667 8 4 C7.67 5.32 7.34 6.64 7 8 C5.83035398 6.8572081 4.66435444 5.71068285 3.5 4.5625 C2.8503125 3.92441406 2.200625 3.28632813 1.53125 2.62890625 C0 1 0 1 0 0 Z " fill="#81C9E4" transform="translate(92,335)"/>
<path d="M0 0 C2.66666667 1.33333333 5.33333333 2.66666667 8 4 C7.67 5.32 7.34 6.64 7 8 C5.83035398 6.8572081 4.66435444 5.71068285 3.5 4.5625 C2.8503125 3.92441406 2.200625 3.28632813 1.53125 2.62890625 C0 1 0 1 0 0 Z " fill="#82CAE4" transform="translate(76,319)"/>
<path d="M0 0 C0.66 0 1.32 0 2 0 C1.65120368 3.25543229 0.97866739 4.01873107 -1.5625 6.25 C-2.366875 6.8275 -3.17125 7.405 -4 8 C-4.66 7.67 -5.32 7.34 -6 7 C-5.04882866 5.8274869 -4.08882991 4.66212985 -3.125 3.5 C-2.59132813 2.8503125 -2.05765625 2.200625 -1.5078125 1.53125 C-0.76144531 0.77328125 -0.76144531 0.77328125 0 0 Z " fill="#2DA3D2" transform="translate(299,297)"/>
<path d="M0 0 C0.33 0.66 0.66 1.32 1 2 C0.34 2 -0.32 2 -1 2 C-0.7215625 2.9590625 -0.7215625 2.9590625 -0.4375 3.9375 C-0.293125 4.618125 -0.14875 5.29875 0 6 C-1 7 -1 7 -3.5625 7.0625 C-4.7690625 7.0315625 -4.7690625 7.0315625 -6 7 C-2.25 1.125 -2.25 1.125 0 0 Z " fill="#2EA2CE" transform="translate(358,239)"/>
<path d="M0 0 C3.875 1.75 3.875 1.75 5 4 C2.69 4.33 0.38 4.66 -2 5 C-2.33 4.01 -2.66 3.02 -3 2 C-2.34 2 -1.68 2 -1 2 C-0.67 1.34 -0.34 0.68 0 0 Z " fill="#44B1DA" transform="translate(406,176)"/>
<path d="M0 0 C1.875 0.3125 1.875 0.3125 4 1 C4.66 1.99 5.32 2.98 6 4 C4.824375 3.9690625 4.824375 3.9690625 3.625 3.9375 C1.01885039 3.81315937 1.01885039 3.81315937 -1 5 C-0.67 3.35 -0.34 1.7 0 0 Z " fill="#45AFD9" transform="translate(389,160)"/>
<path d="M0 0 C1.98 0 3.96 0 6 0 C4.35 1.65 2.7 3.3 1 5 C0.67 3.35 0.34 1.7 0 0 Z " fill="#6ABFE2" transform="translate(320,406)"/>
<path d="M0 0 C1 3 1 3 0 6 C-1.65 6 -3.3 6 -5 6 C-3.35 4.02 -1.7 2.04 0 0 Z " fill="#59B9DF" transform="translate(31,226)"/>
<path d="M0 0 C2.02054804 1.64169528 4.02043058 3.30911778 6 5 C6 5.33 6 5.66 6 6 C4.35 6 2.7 6 1 6 C0.67 4.02 0.34 2.04 0 0 Z " fill="#5FBCDE" transform="translate(423,192)"/>
<path d="M0 0 C0.66 0 1.32 0 2 0 C2 0.66 2 1.32 2 2 C2.66 2 3.32 2 4 2 C4.33 1.34 4.66 0.68 5 0 C5.99 1.32 6.98 2.64 8 4 C5.69 3.67 3.38 3.34 1 3 C0.67 2.01 0.34 1.02 0 0 Z " fill="#47B2DE" transform="translate(319,92)"/>
<path d="M0 0 C0.33 0.99 0.66 1.98 1 3 C0.01 4.485 0.01 4.485 -1 6 C-2.32 5.67 -3.64 5.34 -5 5 C-3.35 3.35 -1.7 1.7 0 0 Z " fill="#57B2DC" transform="translate(227,30)"/>
</svg>
